<svg id="svg" version="1.1" xmlns="http://www.w3.org/2000/svg" xmlns:xlink="http://www.w3.org/1999/xlink" width="400" height="400" viewBox="0, 0, 400,400"><g id="svgg"><path id="path0" d="M150.000 75.000 L 150.000 100.000 175.000 100.000 L 200.000 100.000 200.000 75.000 L 200.000 50.000 175.000 50.000 L 150.000 50.000 150.000 75.000 M250.000 175.000 L 250.000 200.000 275.000 200.000 L 300.000 200.000 300.000 175.000 L 300.000 150.000 275.000 150.000 L 250.000 150.000 250.000 175.000 M100.000 225.000 L 100.000 250.000 125.000 250.000 L 150.000 250.000 150.000 225.000 L 150.000 200.000 125.000 200.000 L 100.000 200.000 100.000 225.000 M150.000 325.000 L 150.000 350.000 175.000 350.000 L 200.000 350.000 200.000 325.000 L 200.000 300.000 175.000 300.000 L 150.000 300.000 150.000 325.000 " stroke="none" fill="#fcfc9c" fill-rule="evenodd"></path><path id="path1" d="M250.000 125.000 L 250.000 150.000 200.000 150.000 L 150.000 150.000 150.000 175.000 L 150.000 200.000 175.000 200.000 L 200.000 200.000 200.000 225.000 L 200.000 250.000 250.000 250.000 L 300.000 250.000 300.000 275.000 L 300.000 300.000 250.000 300.000 L 200.000 300.000 200.000 325.000 L 200.000 350.000 300.000 350.000 L 400.000 350.000 400.000 325.000 L 400.000 300.000 375.000 300.000 L 350.000 300.000 350.000 275.000 L 350.000 250.000 375.000 250.000 L 400.000 250.000 400.000 225.000 L 400.000 200.000 325.000 200.000 L 250.000 200.000 250.000 175.000 L 250.000 150.000 300.000 150.000 L 350.000 150.000 350.000 125.000 L 350.000 100.000 300.000 100.000 L 250.000 100.000 250.000 125.000 " stroke="none" fill="#4cbc64" fill-rule="evenodd"></path><path id="path2" d="M150.000 375.000 L 150.000 400.000 200.000 400.000 L 250.000 400.000 250.000 375.000 L 250.000 350.000 200.000 350.000 L 150.000 350.000 150.000 375.000 " stroke="none" fill="#8c644c" fill-rule="evenodd"></path><path id="path3" d="M100.000 25.000 L 100.000 50.000 150.000 50.000 L 200.000 50.000 200.000 75.000 L 200.000 100.000 125.000 100.000 L 50.000 100.000 50.000 125.000 L 50.000 150.000 75.000 150.000 L 100.000 150.000 100.000 175.000 L 100.000 200.000 50.000 200.000 L 0.000 200.000 0.000 225.000 L 0.000 250.000 25.000 250.000 L 50.000 250.000 50.000 275.000 L 50.000 300.000 25.000 300.000 L 0.000 300.000 0.000 325.000 L 0.000 350.000 75.000 350.000 L 150.000 350.000 150.000 325.000 L 150.000 300.000 225.000 300.000 L 300.000 300.000 300.000 275.000 L 300.000 250.000 250.000 250.000 L 200.000 250.000 200.000 225.000 L 200.000 200.000 175.000 200.000 L 150.000 200.000 150.000 175.000 L 150.000 150.000 200.000 150.000 L 250.000 150.000 250.000 100.000 L 250.000 50.000 275.000 50.000 L 300.000 50.000 300.000 25.000 L 300.000 0.000 200.000 0.000 L 100.000 0.000 100.000 25.000 M150.000 225.000 L 150.000 250.000 125.000 250.000 L 100.000 250.000 100.000 225.000 L 100.000 200.000 125.000 200.000 L 150.000 200.000 150.000 225.000 " stroke="none" fill="#84cc74" fill-rule="evenodd"></path><path id="path4" d="" stroke="none" fill="#64e074" fill-rule="evenodd"></path></g></svg>